<mxfile host="app.diagrams.net" modified="2022-05-23T02:23:17.435Z" agent="5.0 (Windows NT 10.0; Win64; x64) AppleWebKit/537.36 (KHTML, like Gecko) Chrome/101.0.4951.67 Safari/537.36" etag="iyKmaHPJZhyBG0FcZ39g" version="18.0.2" type="github">
  <diagram id="FMHaCtdWOGlkyPV9hM3L" name="Page-1">
    <mxGraphModel dx="1021" dy="529" grid="1" gridSize="10" guides="1" tooltips="1" connect="1" arrows="1" fold="1" page="1" pageScale="1" pageWidth="583" pageHeight="827" math="0" shadow="0">
      <root>
        <mxCell id="0" />
        <mxCell id="1" parent="0" />
        <mxCell id="4Y4j8K0BHiivbQtnIxeI-1" value="Política Ambiental" style="rounded=0;whiteSpace=wrap;html=1;" vertex="1" parent="1">
          <mxGeometry x="30" y="130" width="120" height="60" as="geometry" />
        </mxCell>
        <mxCell id="4Y4j8K0BHiivbQtnIxeI-3" value="Planejamento" style="rounded=0;whiteSpace=wrap;html=1;" vertex="1" parent="1">
          <mxGeometry x="200" y="130" width="120" height="60" as="geometry" />
        </mxCell>
        <mxCell id="4Y4j8K0BHiivbQtnIxeI-4" value="Implementação e Operação" style="rounded=0;whiteSpace=wrap;html=1;" vertex="1" parent="1">
          <mxGeometry x="370" y="130" width="120" height="60" as="geometry" />
        </mxCell>
        <mxCell id="4Y4j8K0BHiivbQtnIxeI-20" value="" style="edgeStyle=orthogonalEdgeStyle;rounded=0;orthogonalLoop=1;jettySize=auto;html=1;" edge="1" parent="1" source="4Y4j8K0BHiivbQtnIxeI-5" target="4Y4j8K0BHiivbQtnIxeI-6">
          <mxGeometry relative="1" as="geometry" />
        </mxCell>
        <mxCell id="4Y4j8K0BHiivbQtnIxeI-5" value="Verificação e ações corretivas" style="rounded=0;whiteSpace=wrap;html=1;fillColor=#d5e8d4;strokeColor=#82b366;" vertex="1" parent="1">
          <mxGeometry x="370" y="250" width="120" height="60" as="geometry" />
        </mxCell>
        <mxCell id="4Y4j8K0BHiivbQtnIxeI-6" value="Análise crítica pela administração" style="rounded=0;whiteSpace=wrap;html=1;fillColor=#d5e8d4;strokeColor=#82b366;" vertex="1" parent="1">
          <mxGeometry x="190" y="250" width="120" height="60" as="geometry" />
        </mxCell>
        <mxCell id="4Y4j8K0BHiivbQtnIxeI-10" value="" style="edgeStyle=orthogonalEdgeStyle;rounded=0;orthogonalLoop=1;jettySize=auto;html=1;" edge="1" parent="1" source="4Y4j8K0BHiivbQtnIxeI-7" target="4Y4j8K0BHiivbQtnIxeI-3">
          <mxGeometry relative="1" as="geometry" />
        </mxCell>
        <mxCell id="4Y4j8K0BHiivbQtnIxeI-7" value="Identificar aspectos ambientais&lt;span style=&quot;color: rgba(0, 0, 0, 0); font-family: monospace; font-size: 0px; text-align: start;&quot;&gt;%3CmxGraphModel%3E%3Croot%3E%3CmxCell%20id%3D%220%22%2F%3E%3CmxCell%20id%3D%221%22%20parent%3D%220%22%2F%3E%3CmxCell%20id%3D%222%22%20value%3D%22%22%20style%3D%22rounded%3D0%3BwhiteSpace%3Dwrap%3Bhtml%3D1%3B%22%20vertex%3D%221%22%20parent%3D%221%22%3E%3CmxGeometry%20x%3D%2240%22%20y%3D%22170%22%20width%3D%22120%22%20height%3D%2260%22%20as%3D%22geometry%22%2F%3E%3C%2FmxCell%3E%3C%2Froot%3E%3C%2FmxGraphModel%3E&lt;/span&gt;" style="rounded=0;whiteSpace=wrap;html=1;fillColor=#e1d5e7;strokeColor=#9673a6;" vertex="1" parent="1">
          <mxGeometry x="110" y="10" width="90" height="50" as="geometry" />
        </mxCell>
        <mxCell id="4Y4j8K0BHiivbQtnIxeI-9" value="" style="edgeStyle=orthogonalEdgeStyle;rounded=0;orthogonalLoop=1;jettySize=auto;html=1;" edge="1" parent="1" source="4Y4j8K0BHiivbQtnIxeI-8" target="4Y4j8K0BHiivbQtnIxeI-3">
          <mxGeometry relative="1" as="geometry" />
        </mxCell>
        <mxCell id="4Y4j8K0BHiivbQtnIxeI-8" value="Requisitos Legais e objetivos" style="rounded=0;whiteSpace=wrap;html=1;fillColor=#e1d5e7;strokeColor=#9673a6;" vertex="1" parent="1">
          <mxGeometry x="215" y="10" width="90" height="50" as="geometry" />
        </mxCell>
        <mxCell id="4Y4j8K0BHiivbQtnIxeI-14" value="" style="edgeStyle=orthogonalEdgeStyle;rounded=0;orthogonalLoop=1;jettySize=auto;html=1;" edge="1" parent="1" source="4Y4j8K0BHiivbQtnIxeI-11" target="4Y4j8K0BHiivbQtnIxeI-4">
          <mxGeometry relative="1" as="geometry" />
        </mxCell>
        <mxCell id="4Y4j8K0BHiivbQtnIxeI-11" value="Atribuição de funções e estruturas" style="rounded=0;whiteSpace=wrap;html=1;fillColor=#e1d5e7;strokeColor=#9673a6;" vertex="1" parent="1">
          <mxGeometry x="320" y="10" width="90" height="50" as="geometry" />
        </mxCell>
        <mxCell id="4Y4j8K0BHiivbQtnIxeI-13" value="" style="edgeStyle=orthogonalEdgeStyle;rounded=0;orthogonalLoop=1;jettySize=auto;html=1;" edge="1" parent="1" source="4Y4j8K0BHiivbQtnIxeI-12" target="4Y4j8K0BHiivbQtnIxeI-4">
          <mxGeometry relative="1" as="geometry" />
        </mxCell>
        <mxCell id="4Y4j8K0BHiivbQtnIxeI-12" value="Treinamento, comunicação e documentação" style="rounded=0;whiteSpace=wrap;html=1;fillColor=#e1d5e7;strokeColor=#9673a6;" vertex="1" parent="1">
          <mxGeometry x="420" y="10" width="90" height="50" as="geometry" />
        </mxCell>
        <mxCell id="4Y4j8K0BHiivbQtnIxeI-18" value="" style="edgeStyle=orthogonalEdgeStyle;rounded=0;orthogonalLoop=1;jettySize=auto;html=1;" edge="1" parent="1" source="4Y4j8K0BHiivbQtnIxeI-15" target="4Y4j8K0BHiivbQtnIxeI-16">
          <mxGeometry relative="1" as="geometry" />
        </mxCell>
        <mxCell id="4Y4j8K0BHiivbQtnIxeI-15" value="Política Ambiental" style="rounded=0;whiteSpace=wrap;html=1;fillColor=#d5e8d4;strokeColor=#82b366;" vertex="1" parent="1">
          <mxGeometry x="30" y="130" width="120" height="60" as="geometry" />
        </mxCell>
        <mxCell id="4Y4j8K0BHiivbQtnIxeI-19" value="" style="edgeStyle=orthogonalEdgeStyle;rounded=0;orthogonalLoop=1;jettySize=auto;html=1;" edge="1" parent="1" source="4Y4j8K0BHiivbQtnIxeI-16" target="4Y4j8K0BHiivbQtnIxeI-17">
          <mxGeometry relative="1" as="geometry" />
        </mxCell>
        <mxCell id="4Y4j8K0BHiivbQtnIxeI-16" value="Planejamento" style="rounded=0;whiteSpace=wrap;html=1;fillColor=#d5e8d4;strokeColor=#82b366;" vertex="1" parent="1">
          <mxGeometry x="200" y="130" width="120" height="60" as="geometry" />
        </mxCell>
        <mxCell id="4Y4j8K0BHiivbQtnIxeI-26" value="" style="edgeStyle=orthogonalEdgeStyle;rounded=0;orthogonalLoop=1;jettySize=auto;html=1;" edge="1" parent="1" source="4Y4j8K0BHiivbQtnIxeI-17" target="4Y4j8K0BHiivbQtnIxeI-5">
          <mxGeometry relative="1" as="geometry" />
        </mxCell>
        <mxCell id="4Y4j8K0BHiivbQtnIxeI-17" value="Implementação e Operação" style="rounded=0;whiteSpace=wrap;html=1;fillColor=#d5e8d4;strokeColor=#82b366;" vertex="1" parent="1">
          <mxGeometry x="370" y="130" width="120" height="60" as="geometry" />
        </mxCell>
        <mxCell id="4Y4j8K0BHiivbQtnIxeI-28" style="edgeStyle=orthogonalEdgeStyle;rounded=0;orthogonalLoop=1;jettySize=auto;html=1;exitX=0.5;exitY=1;exitDx=0;exitDy=0;entryX=0.5;entryY=0;entryDx=0;entryDy=0;" edge="1" parent="1" source="4Y4j8K0BHiivbQtnIxeI-27" target="4Y4j8K0BHiivbQtnIxeI-17">
          <mxGeometry relative="1" as="geometry" />
        </mxCell>
        <mxCell id="4Y4j8K0BHiivbQtnIxeI-27" value="Controle operacional e preparação" style="rounded=0;whiteSpace=wrap;html=1;fillColor=#e1d5e7;strokeColor=#9673a6;" vertex="1" parent="1">
          <mxGeometry x="540" y="10" width="90" height="50" as="geometry" />
        </mxCell>
        <mxCell id="4Y4j8K0BHiivbQtnIxeI-32" value="" style="edgeStyle=orthogonalEdgeStyle;rounded=0;orthogonalLoop=1;jettySize=auto;html=1;" edge="1" parent="1" source="4Y4j8K0BHiivbQtnIxeI-31" target="4Y4j8K0BHiivbQtnIxeI-5">
          <mxGeometry relative="1" as="geometry" />
        </mxCell>
        <mxCell id="4Y4j8K0BHiivbQtnIxeI-31" value="Monitoramento e medição" style="rounded=0;whiteSpace=wrap;html=1;fillColor=#e1d5e7;strokeColor=#9673a6;" vertex="1" parent="1">
          <mxGeometry x="460" y="370" width="90" height="50" as="geometry" />
        </mxCell>
        <mxCell id="4Y4j8K0BHiivbQtnIxeI-36" value="" style="edgeStyle=orthogonalEdgeStyle;rounded=0;orthogonalLoop=1;jettySize=auto;html=1;" edge="1" parent="1" source="4Y4j8K0BHiivbQtnIxeI-35" target="4Y4j8K0BHiivbQtnIxeI-5">
          <mxGeometry relative="1" as="geometry" />
        </mxCell>
        <mxCell id="4Y4j8K0BHiivbQtnIxeI-35" value="ações corretivas, registros e auditoria&lt;span style=&quot;color: rgba(0, 0, 0, 0); font-family: monospace; font-size: 0px; text-align: start;&quot;&gt;%3CmxGraphModel%3E%3Croot%3E%3CmxCell%20id%3D%220%22%2F%3E%3CmxCell%20id%3D%221%22%20parent%3D%220%22%2F%3E%3CmxCell%20id%3D%222%22%20value%3D%22Monitoramento%20e%20medi%C3%A7%C3%A3o%22%20style%3D%22rounded%3D0%3BwhiteSpace%3Dwrap%3Bhtml%3D1%3BfillColor%3D%23e1d5e7%3BstrokeColor%3D%239673a6%3B%22%20vertex%3D%221%22%20parent%3D%221%22%3E%3CmxGeometry%20x%3D%22470%22%20y%3D%22370%22%20width%3D%2290%22%20height%3D%2250%22%20as%3D%22geometry%22%2F%3E%3C%2FmxCell%3E%3C%2Froot%3E%3C%2FmxGraphModel%3E&lt;/span&gt;" style="rounded=0;whiteSpace=wrap;html=1;fillColor=#e1d5e7;strokeColor=#9673a6;" vertex="1" parent="1">
          <mxGeometry x="330" y="370" width="100" height="50" as="geometry" />
        </mxCell>
        <mxCell id="4Y4j8K0BHiivbQtnIxeI-38" value="" style="edgeStyle=orthogonalEdgeStyle;rounded=0;orthogonalLoop=1;jettySize=auto;html=1;" edge="1" parent="1" source="4Y4j8K0BHiivbQtnIxeI-37" target="4Y4j8K0BHiivbQtnIxeI-6">
          <mxGeometry relative="1" as="geometry" />
        </mxCell>
        <mxCell id="4Y4j8K0BHiivbQtnIxeI-37" value="ações corretivas, registros e auditoria&lt;span style=&quot;color: rgba(0, 0, 0, 0); font-family: monospace; font-size: 0px; text-align: start;&quot;&gt;%3CmxGraphModel%3E%3Croot%3E%3CmxCell%20id%3D%220%22%2F%3E%3CmxCell%20id%3D%221%22%20parent%3D%220%22%2F%3E%3CmxCell%20id%3D%222%22%20value%3D%22Monitoramento%20e%20medi%C3%A7%C3%A3o%22%20style%3D%22rounded%3D0%3BwhiteSpace%3Dwrap%3Bhtml%3D1%3BfillColor%3D%23e1d5e7%3BstrokeColor%3D%239673a6%3B%22%20vertex%3D%221%22%20parent%3D%221%22%3E%3CmxGeometry%20x%3D%22470%22%20y%3D%22370%22%20width%3D%2290%22%20height%3D%2250%22%20as%3D%22geometry%22%2F%3E%3C%2FmxCell%3E%3C%2Froot%3E%3C%2FmxGraphModel%3E&lt;/span&gt;" style="rounded=0;whiteSpace=wrap;html=1;fillColor=#e1d5e7;strokeColor=#9673a6;" vertex="1" parent="1">
          <mxGeometry x="170" y="370" width="100" height="50" as="geometry" />
        </mxCell>
        <mxCell id="4Y4j8K0BHiivbQtnIxeI-39" value="Inter-relacionamento dos requisitos da norma" style="rounded=0;whiteSpace=wrap;html=1;fillColor=#d5e8d4;strokeColor=#82b366;" vertex="1" parent="1">
          <mxGeometry x="30" y="250" width="120" height="60" as="geometry" />
        </mxCell>
      </root>
    </mxGraphModel>
  </diagram>
</mxfile>
